inDegrees=yes
name=ik_S40_A05_T01
DataType=double
version=3
OpenSimVersion=4.3-2021-08-27-4bc7ad9
endheader
time	pelvis_tilt	pelvis_list	pelvis_rotation	pelvis_tx	pelvis_ty	pelvis_tz	hip_flexion_r	hip_adduction_r	hip_rotation_r	knee_angle_r	knee_angle_r_beta	ankle_angle_r	subtalar_angle_r	mtp_angle_r	hip_flexion_l	hip_adduction_l	hip_rotation_l	knee_angle_l	knee_angle_l_beta	ankle_angle_l	subtalar_angle_l	mtp_angle_l	lumbar_extension	lumbar_bending	lumbar_rotation	arm_flex_r	arm_add_r	arm_rot_r	elbow_flex_r	pro_sup_r	wrist_flex_r	wrist_dev_r	arm_flex_l	arm_add_l	arm_rot_l	elbow_flex_l	pro_sup_l	wrist_flex_l	wrist_dev_l
12.19999999999983	-5.186232333876911	-6.304555194703243	48.79254553548285	0	0.9399999999999999	0	33.10006214501922	-9.610240398988486	-9.054364128258992	37.24985443680853	0.6501326058109268	0	0	0	33.10006214501922	-9.610240398988486	-9.054364128258992	37.24985443680853	0.6501326058109268	0	0	0	-5.774578875770307	-6.577501294957059	4.830268449226492	71.57510685200721	27.52590524745618	35.49914530455646	9.869647609767897	86.97970621051694	0	0	28.80957611190889	-1.555730903419388	5.040236709294265	46.40700209578638	136.4257814106554	0	0
12.21999999999983	-5.180689205217231	-6.357894026713164	48.86434344823166	0	0.9399999999999999	0	33.10554602199759	-9.610851620783402	-9.05531595462716	37.25562454804054	0.6502333132501318	0	0	0	33.10554602199759	-9.610851620783402	-9.05531595462716	37.25562454804054	0.6502333132501318	0	0	0	-5.814748882120496	-6.60734568941804	4.79136052344695	71.2549995306003	27.8605345255516	35.90438926713582	9.750831977485607	86.74396147923071	0	0	28.78796179139892	-1.4620091851085	5.257636012054357	46.52849722119227	136.275335310128	0	0
12.23999999999983	-5.170888468036702	-6.45865447238494	48.9451922510116	0	0.9399999999999999	0	33.1136565377347	-9.611756034341713	-9.056724462616897	37.26414473171501	0.6503820185081258	0	0	0	33.1136565377347	-9.611756034341713	-9.056724462616897	37.26414473171501	0.6503820185081258	0	0	0	-5.88610396599787	-6.675911726684963	4.779482701414281	71.07264092659068	28.21400219650837	36.1555226128502	8.850204676379478	85.99563958120147	0	0	28.84055684066389	-1.429533987972368	5.513639135432451	46.63904089026069	136.1531520453528	0	0
12.25999999999983	-5.172149583706738	-6.541943231096147	48.9714770582632	0	0.9399999999999999	0	33.13513567983487	-9.613757842283569	-9.060098471238913	37.28726013395955	0.6507854583852161	0	0	0	33.13513567983487	-9.613757842283569	-9.060098471238913	37.28726013395955	0.6507854583852161	0	0	0	-5.952063758664608	-6.722975353227477	4.784862982430235	71.25789482159165	28.19444461961562	36.05500838053629	8.848103887486483	85.98214561217651	0	0	28.97215691847578	-1.486419786772319	5.60631652719939	46.70853825369822	136.0338744739887	0	0
12.27999999999983	-5.175524282751524	-6.621255976277559	49.00313221142979	0	0.9399999999999999	0	33.14120181600138	-9.614429540008373	-9.061147854685325	37.29364937936109	0.6508969717541909	0	0	0	33.14120181600138	-9.614429540008373	-9.061147854685325	37.29364937936109	0.6508969717541909	0	0	0	-6.017450039084156	-6.764637367403425	4.757575880063105	71.0757960564064	28.51397555200926	36.27471455867671	7.711667400821618	84.89131830391375	0	0	29.03018135116623	-1.432843264844428	5.630871416498864	46.75784091721771	136.0659093255066	0	0
12.29999999999983	-5.187212673792357	-6.721097747545514	49.02068654809305	0	0.9399999999999999	0	33.1482351561276	-9.615205163349799	-9.062361653636676	37.30107526697364	0.6510265779429129	0	0	0	33.1482351561276	-9.615205163349799	-9.062361653636676	37.30107526697364	0.6510265779429129	0	0	0	-6.106414777078237	-6.806200110033017	4.704261493557568	70.91909693662237	28.55385589071842	36.16085675406445	8.302340925028139	86.39306446922423	0	0	29.14051815501496	-1.454479071601886	5.571161427088487	46.86442994097579	135.9571366173899	0	0
12.31999999999983	-5.200872971756816	-6.728608319051539	49.01321903532246	0	0.9399999999999999	0	33.15148749708212	-9.61556263915676	-9.062921814122287	37.30451686731796	0.6510866452004591	0	0	0	33.15148749708212	-9.61556263915676	-9.062921814122287	37.30451686731796	0.6510866452004591	0	0	0	-6.125747108506848	-6.789208520988785	4.654525759089614	70.91358610847038	28.60973704130421	36.22771569482598	8.248401966785826	86.69725813581395	0	0	29.11226930284979	-1.414254344116881	5.342485055096756	46.91635717587394	135.9964988148386	0	0
12.33999999999983	-5.192942955703056	-6.708563446686783	48.89947577714725	0	0.9399999999999999	0	33.15599812990232	-9.616059457045978	-9.063699805057118	37.30927939436108	0.6511697669780767	0	0	0	33.15599812990232	-9.616059457045978	-9.063699805057118	37.30927939436108	0.6511697669780767	0	0	0	-6.105709953654931	-6.780855568524238	4.654406051096325	71.17346871689442	28.52441988867905	36.10680354371185	7.995479625449199	87.16615013362558	0	0	28.97387081402992	-1.419531717205276	5.12656260884928	47.0278949368757	135.9744614575701	0	0
12.35999999999983	-5.163245374221482	-6.705588771224257	48.83530981566668	0	0.9399999999999999	0	33.1600052806769	-9.616499545302178	-9.064389738090366	37.31351899816175	0.6512437620233786	0	0	0	33.1600052806769	-9.616499545302178	-9.064389738090366	37.31351899816175	0.6512437620233786	0	0	0	-6.0894872404796	-6.787659058577	4.588995353643265	70.84176527319147	28.52470832665745	36.88330741329834	7.877724074234895	87.10761196293454	0	0	28.80863889279515	-1.557255613394771	5.073092472246744	47.2225137187367	135.9412361846444	0	0
12.37999999999982	-5.142579000780443	-6.703421443226858	48.80613031560301	0	0.9399999999999999	0	33.16514094758484	-9.617065307343122	-9.065275888580498	37.31893319459796	0.6513382575775402	0	0	0	33.16514094758484	-9.617065307343122	-9.065275888580498	37.31893319459796	0.6513382575775402	0	0	0	-6.07763436310947	-6.79316776672508	4.552565189453986	70.59526618797413	28.41455901327819	37.58656902251217	7.84671337712397	87.02623303485632	0	0	28.806848634073	-1.59828181824223	5.058395318381654	47.23283668415159	135.9898040930754	0	0
12.39999999999982	-5.112969835879506	-6.696607026849704	48.74535358527297	0	0.9399999999999999	0	33.16792684297486	-9.617370350329548	-9.065754773513472	37.32188398457389	0.6513897585781551	0	0	0	33.16792684297486	-9.617370350329548	-9.065754773513472	37.32188398457389	0.6513897585781551	0	0	0	-6.056147882495948	-6.802836805309467	4.511755502979581	70.47991600386997	28.4355743485702	37.77208265468343	7.960664406261555	87.2385499018811	0	0	28.82942182716864	-1.658424850719067	4.970331949945565	47.18947042716938	136.0012348398366	0	0
12.41999999999982	-5.100057818752524	-6.686634833352007	48.69461929525772	0	0.9399999999999999	0	33.17384896416549	-9.618020714019554	-9.06677483383767	37.32813659022905	0.6514988871336663	0	0	0	33.17384896416549	-9.618020714019554	-9.06677483383767	37.32813659022905	0.6514988871336663	0	0	0	-6.039092408591269	-6.808305135793229	4.530065566198037	70.4825177968124	28.36291365604	37.47922578310197	8.226501486227384	87.61694356777954	0	0	28.83128962228056	-1.681576314872582	4.874513229346341	47.12966386346591	136.0959506619451	0	0
12.43999999999982	-5.091845816139304	-6.658799604966775	48.59433487575516	0	0.9399999999999999	0	33.18097026480518	-9.618803805689739	-9.068002777710678	37.33563824766179	0.6516298157552244	0	0	0	33.18097026480518	-9.618803805689739	-9.068002777710678	37.33563824766179	0.6516298157552244	0	0	0	-6.012932338655217	-6.795355305261057	4.534915096709982	70.44494560386246	28.36740439284935	37.00000092837622	8.563767976119159	88.20657512216475	0	0	28.79853068245609	-1.707505936846729	4.693067078657868	47.1182057286582	136.0871346107622	0	0
12.45999999999982	-5.072531382672021	-6.588476608588166	48.36234456835378	0	0.9399999999999999	0	33.18971752946008	-9.619761239102459	-9.069507009749911	37.34487773432336	0.6517910752186629	0	0	0	33.18971752946008	-9.619761239102459	-9.069507009749911	37.34487773432336	0.6517910752186629	0	0	0	-5.944919488820062	-6.768643564460572	4.572325377806009	70.2413715123059	28.40044219412476	36.25785257412341	9.883515118250486	89.97673890609859	0	0	28.67708417116156	-1.774805966445276	4.376090624665337	47.10763012370258	136.1234691783825	0	0
12.47999999999982	-5.080755314196553	-6.564592571268697	48.20215010287288	0	0.9399999999999999	0	33.19647535679458	-9.620502306556908	-9.070670824984079	37.35199546579877	0.6519153030681815	0	0	0	33.19647535679458	-9.620502306556908	-9.070670824984079	37.35199546579877	0.6519153030681815	0	0	0	-5.928111913850136	-6.757682472321093	4.636745288261337	70.17924791264866	28.28898847985847	35.02604338985658	11.37953301247476	91.22480989016508	0	0	28.65676840645358	-1.77401897633238	4.259143367319529	47.09257394823776	136.0571919112068	0	0
12.49999999999982	-5.085736624319474	-6.545989333005577	48.04932061762754	0	0.9399999999999999	0	33.20551766311628	-9.621493331248914	-9.072227892510206	37.36151254482148	0.6520814074323004	0	0	0	33.20551766311628	-9.621493331248914	-9.072227892510206	37.36151254482148	0.6520814074323004	0	0	0	-5.909382604794053	-6.756854329856318	4.728490951521687	70.17852513803254	28.13511757062161	33.46648137082965	13.05097434591215	92.5577251069963	0	0	28.63514384765709	-1.788397911377882	4.060525789022772	47.10224416068092	136.116600176194	0	0
12.51999999999982	-5.102828024669989	-6.522289355251282	47.87210973726034	0	0.9399999999999999	0	33.21271697880303	-9.62227950412522	-9.073465008211114	37.36910499319493	0.6522139206547047	0	0	0	33.21271697880303	-9.62227950412522	-9.073465008211114	37.36910499319493	0.6522139206547047	0	0	0	-5.893755541261174	-6.743046095488651	4.809447975399798	70.18121787820392	27.980236292253	31.83391763758436	15.71617665619401	93.58649603121027	0	0	28.62760434205074	-1.800593020262423	3.772149077023933	47.12785716773287	136.1673566590506	0	0
12.53999999999982	-5.132865373870911	-6.49393121028463	47.71211774977348	0	0.9399999999999999	0	33.21982367959686	-9.623050602762776	-9.074681397995635	37.37663525534773	0.6523453485228093	0	0	0	33.21982367959686	-9.623050602762776	-9.074681397995635	37.37663525534773	0.6523453485228093	0	0	0	-5.886324619379098	-6.712326310419884	4.875884939592152	70.26775797017551	27.81363675519372	30.41491543214518	17.2973562377766	95.91936058254753	0	0	28.62007618896843	-1.880392220131799	3.212322213893202	47.16795422800953	136.351161162183	0	0
12.55999999999982	-5.167832316166154	-6.466079224852185	47.49502798518004	0	0.9399999999999999	0	33.22756726023529	-9.623892544632719	-9.07600895462258	37.38481399745024	0.6524880945011696	0	0	0	33.22756726023529	-9.623892544632719	-9.07600895462258	37.38481399745024	0.6524880945011696	0	0	0	-5.882493061881566	-6.682259601938759	4.970559901501574	70.44301004264457	27.7193961488425	29.14393271529971	18.62184656929688	98.20826684834992	0	0	28.60630182547845	-1.953132398821403	2.922466379636586	47.19700700643832	136.2750675824755	0	0
12.57999999999982	-5.193573944290777	-6.433702632043039	47.31685205968852	0	0.9399999999999999	0	33.23239944293162	-9.624416948721043	-9.076836544453531	37.38992121048406	0.6525772321842106	0	0	0	33.23239944293162	-9.624416948721043	-9.076836544453531	37.38992121048406	0.6525772321842106	0	0	0	-5.870911170530822	-6.652517778159699	5.037672000491628	70.61349861467681	27.57215599211135	28.18366899130586	19.62807769573348	99.81842450557404	0	0	28.54247554092137	-1.988955697498963	2.749244676734059	47.20074027511644	136.3139014639743	0	0
12.59999999999982	-5.207523644654922	-6.397988669850974	47.22231120026979	0	0.9399999999999999	0	33.23682446663911	-9.624898170128889	-9.077595522264703	37.39458657307787	0.6526586581222721	0	0	0	33.23682446663911	-9.624898170128889	-9.077595522264703	37.39458657307787	0.6526586581222721	0	0	0	-5.852651583131538	-6.622037047326998	5.065155334572035	70.58029840138794	27.3844719136893	27.73285566931993	20.48888624756171	100.3918320114902	0	0	28.48298509053713	-2.038022558871778	2.73610498901271	47.23941714739606	136.2476656292389	0	0
12.61999999999982	-5.223320079335836	-6.354255253130485	47.11032974376462	0	0.9399999999999999	0	33.23929095447684	-9.625165664154043	-9.078017860631672	37.39719221229921	0.6527041351058035	0	0	0	33.23929095447684	-9.625165664154043	-9.078017860631672	37.39719221229921	0.6527041351058035	0	0	0	-5.834748594070038	-6.572710085434971	5.02766116071543	70.36184443282218	27.37853307191937	27.91201617514012	20.6097501437583	100.4610105426194	0	0	28.43196174117304	-2.076388978955128	2.714306810139142	47.24438022570828	136.2491757780577	0	0
